<?xml version="1.0" encoding="UTF-8"?>
<svg id="Layer_2" data-name="Layer 2" xmlns="http://www.w3.org/2000/svg" viewBox="0 0 3649.6 352.96">
  <defs>
    <style>
      .cls-1 {
        fill: #9173ff;
      }

      .cls-2 {
        font-family: GTAmerica-CnBd, 'GT America';
        font-size: 319.47px;
      }

      .cls-3 {
        letter-spacing: -.08em;
      }

      .cls-4 {
        letter-spacing: -.06em;
      }

      .cls-5 {
        letter-spacing: -.02em;
      }

      .cls-6 {
        letter-spacing: -.03em;
      }

      .cls-7 {
        letter-spacing: -.03em;
      }
    </style>
  </defs>
  <g id="Layer_1-2" data-name="Layer 1">
    <text class="cls-2" transform="translate(0 275.97)"><tspan class="cls-5" x="0" y="0">MORE</tspan><tspan class="cls-4" x="765.11" y="0"> </tspan><tspan class="cls-5" x="812.39" y="0">PERF</tspan><tspan class="cls-7" x="1466.97" y="0">E</tspan><tspan class="cls-6" x="1619.35" y="0">C</tspan><tspan class="cls-3" x="1799.53" y="0">T</tspan><tspan class="cls-5" x="1935.63" y="0" xml:space="preserve"> UNION</tspan></text>
    <g>
      <rect class="cls-1" x="2895.88" y="35.72" width="744.45" height="226.68" transform="translate(1.02 319.05) rotate(-5.59)"/>
      <g>
        <path d="M3027,222.24l-2.18,29.19-90.87,8.89,11.54-150.19,89.42-8.75-2.18,29.19-50.32,4.93-2.35,29.62,47.2-4.62-2.22,28.77-47.2,4.62-2.61,33.43,51.78-5.07Z"/>
        <path d="M3041.14,100.77l40.55-3.97,10.33,88.42c1.2,10.17,1.46,17.07,1.34,24.43l1.04-.1c.95-7.44,2.36-14.51,5.1-25.06l24.19-91.8,42.21-4.13-50.01,153.95-47.62,4.66-27.14-146.4Z"/>
        <path d="M3254.7,199.96l-2.18,29.19-90.87,8.89,11.54-150.19,89.42-8.75-2.18,29.19-50.32,4.93-2.35,29.62,47.2-4.62-2.22,28.77-47.21,4.62-2.6,33.42,51.78-5.07Z"/>
        <path d="M3273.21,78.06l41.8-4.09,24.1,66.08c2.27,6.08,5.11,13.57,6.3,19.33l.62-.06c.45-8.23.89-16.67,1.57-24.72l5.04-64.31,35.14-3.44-11.54,150.19-38.68,3.79-26.19-70.28c-2.56-6.89-5.31-13.55-6.53-19.51l-.62.06c-.68,8.04-1.14,16.28-1.8,24.53l-5.4,69.18-35.35,3.46,11.54-150.19Z"/>
        <path d="M3395.27,66.11l107.92-10.56-2.52,32.16-34.31,3.36-9.23,118.05-39.09,3.83,9.23-118.05-34.52,3.38,2.52-32.16Z"/>
        <path d="M3492.68,169.11l34.1-20.55c4.59,21.17,16.25,24.44,26.44,23.44,13.52-1.32,16.51-9.38,15.89-15.62-.55-5.62-4.12-9.88-13.26-13.19l-16.1-5.77c-11.97-4.29-32.26-14.27-34.68-39.01-1.83-18.72,5.67-47.16,51.42-51.64,17.68-1.73,44.91-.2,57.32,30.08l-31.52,21.14c-2.83-18.2-14.23-23.17-25.26-22.09-12.48,1.22-14.64,9.2-14.17,13.98.63,6.45,6.51,10.7,15.83,13.78l15.62,5.19c11.72,3.89,31.24,12.48,33.89,39.51,2.04,20.79-5.39,50.07-49.68,54.41-24.75,2.42-56.38-3.3-65.85-33.65Z"/>
      </g>
    </g>
  </g>
</svg>