<?xml version="1.0" encoding="UTF-8"?>
<svg id="Layer_2" data-name="Layer 2" xmlns="http://www.w3.org/2000/svg" viewBox="0 0 1293.01 1214.62">
  <defs>
    <style>
      .cls-1 {
        fill: #9173ff;
      }
    </style>
  </defs>
  <g id="Layer_1-2" data-name="Layer 1">
    <g>
      <g>
        <path d="M216.24,266.22V6.23h77.27l34.79,146.84c2.56,13.18,4.39,25.27,5.13,35.15h1.1c.73-9.89,2.56-21.97,5.49-35.15L373.7,6.23h77.63v260h-50.17V112.06c0-15.38,0-34.42,1.1-49.8h-1.46c-1.1,9.89-2.93,20.51-5.13,31.86l-39.92,172.11h-45.04l-41.01-172.11c-2.56-11.72-4.76-24.17-5.13-31.49h-1.46c1.1,14.65,1.1,33.69,1.1,49.44v154.17h-47.97Z"/>
        <path d="M476.6,136.22C476.6,39.18,515.41,0,580.23,0s103.27,39.18,103.27,136.22-38.82,136.22-103.27,136.22-103.63-39.18-103.63-136.22ZM624.54,136.22c0-70.68-16.11-91.55-44.31-91.55s-45.04,20.87-45.04,91.55,16.48,91.55,45.04,91.55,44.31-21.24,44.31-91.55Z"/>
        <path d="M832.17,266.22l-38.45-102.9h-28.2v102.9h-56.76V6.23h92.65c60.42,0,86.42,30.03,86.42,78,0,33.69-15.01,58.23-41.38,68.84l46.87,113.15h-61.15ZM765.52,45.41v80.93h27.46c24.9,0,35.52-15.75,35.52-42.11s-10.62-38.82-35.52-38.82h-27.46Z"/>
        <path d="M1058.83,111.69v42.48h-86.42v69.21h94.84v42.84h-151.61V6.23h149.04v42.85h-92.28v62.62h86.42Z"/>
        <path d="M94.11,331.08c53.1,0,84.22,30.39,84.22,80.93s-30.76,82.76-84.22,82.76h-37.35v96.31H0v-260h94.11ZM83.86,454.85c22.71,0,35.16-14.65,35.16-42.85s-12.08-41.01-35.52-41.01h-26.73v83.86h27.1Z"/>
        <path d="M340.19,436.54v42.48h-86.42v69.21h94.84v42.84h-151.61v-260h149.04v42.85h-92.28v62.62h86.42Z"/>
        <path d="M498.02,591.08l-38.45-102.9h-28.2v102.9h-56.76v-260h92.65c60.42,0,86.42,30.03,86.42,78,0,33.69-15.01,58.23-41.38,68.84l46.87,113.15h-61.15ZM431.37,370.26v80.93h27.46c24.9,0,35.52-15.75,35.52-42.11s-10.62-38.82-35.52-38.82h-27.46Z"/>
        <path d="M730.55,374.65h-92.28v63.35h86.42v42.84h-86.42v110.23h-56.76v-260h149.04v43.58Z"/>
        <path d="M893.5,436.54v42.48h-86.42v69.21h94.84v42.84h-151.61v-260h149.04v42.85h-92.28v62.62h86.42Z"/>
        <path d="M913.64,461.08c0-101.07,39.55-136.22,101.8-136.22,56.76,0,92.28,31.49,93.75,95.21l-56.39,10.25c-1.83-46.87-13.92-60.06-37.72-60.06-26.73,0-43.21,20.87-43.21,90.45s15.38,90.82,43.58,90.82c22.34,0,35.52-16.11,38.08-60.42l56.03,12.08c-4.39,61.52-39.92,94.11-94.48,94.11-65.92,0-101.44-33.69-101.44-136.22Z"/>
        <path d="M1293.01,331.08v46.51h-62.62v213.49h-56.39v-213.49h-62.99v-46.51h182Z"/>
        <path d="M158.2,655.93h56.76v180.17c0,24.54,12.82,39.18,35.89,39.18s35.89-14.65,35.89-39.18v-180.17h56.39v182.73c0,51.27-33.69,83.49-92.28,83.49s-92.65-32.23-92.65-83.49v-182.73Z"/>
        <path d="M377.18,915.93v-260h61.52l65.55,135.49c6.22,12.82,9.89,25.27,12.82,43.21h1.1c-.37-16.48-.73-34.42-.73-52v-126.7h52v260h-57.13l-69.58-142.08c-6.59-13.92-10.99-28.2-13.18-43.58h-.73c.37,13.55.73,32.59.73,50.17v135.49h-52.37Z"/>
        <path d="M606.04,915.93v-260h56.76v260h-56.76Z"/>
        <path d="M687.7,785.93c0-97.04,38.82-136.22,103.63-136.22s103.27,39.18,103.27,136.22-38.82,136.22-103.27,136.22-103.63-39.18-103.63-136.22ZM835.64,785.93c0-70.68-16.11-91.55-44.31-91.55s-45.04,20.87-45.04,91.55,16.48,91.55,45.04,91.55,44.31-21.24,44.31-91.55Z"/>
        <path d="M919.86,915.93v-260h61.52l65.55,135.49c6.22,12.82,9.89,25.27,12.82,43.21h1.1c-.37-16.48-.73-34.42-.73-52v-126.7h52v260h-57.13l-69.58-142.08c-6.59-13.92-10.99-28.2-13.18-43.58h-.73c.37,13.55.73,32.59.73,50.17v135.49h-52.37Z"/>
      </g>
      <g>
        <rect class="cls-1" x="403.49" y="929.48" width="744.45" height="226.68" transform="translate(-157.8 138.52) rotate(-9.27)"/>
        <g>
          <path d="M539.79,1131.32l-.31,29.27-90.12,14.7,1.89-150.62,88.67-14.47-.31,29.27-49.9,8.14-.44,29.71,46.81-7.64-.37,28.85-46.81,7.64-.46,33.52,51.35-8.38Z"/>
          <path d="M546.12,1009.19l40.21-6.56,15.98,87.58c1.85,10.07,2.55,16.94,2.91,24.29l1.03-.17c.47-7.49,1.42-14.63,3.49-25.34l18.25-93.16,41.86-6.83-40.04,156.84-47.22,7.7-36.47-144.36Z"/>
          <path d="M765.59,1094.48l-.31,29.27-90.12,14.7,1.89-150.62,88.67-14.47-.31,29.27-49.9,8.14-.45,29.71,46.81-7.64-.37,28.85-46.81,7.64-.46,33.52,51.35-8.38Z"/>
          <path d="M776.25,971.65l41.45-6.76,28.29,64.4c2.66,5.92,5.97,13.21,7.53,18.88l.62-.1c-.08-8.24-.18-16.69-.02-24.77l.91-64.51,34.85-5.69-1.89,150.62-38.36,6.26-30.65-68.46c-3-6.71-6.17-13.18-7.77-19.06l-.62.1c-.17,8.07-.09,16.31-.22,24.59l-.96,69.38-35.06,5.72,1.89-150.62Z"/>
          <path d="M897.29,951.9l107.02-17.46-.45,32.25-34.03,5.55-1.64,118.4-38.77,6.33,1.64-118.4-34.23,5.59.45-32.25Z"/>
          <path d="M1001.11,1048.43l32.71-22.7c5.94,20.84,17.78,23.35,27.89,21.7,13.4-2.19,15.87-10.42,14.86-16.61-.91-5.57-4.74-9.6-14.08-12.31l-16.44-4.73c-12.22-3.51-33.11-12.17-37.11-36.71-3.03-18.56,2.63-47.43,48-54.83,17.53-2.86,44.8-3.08,59.13,26.34l-30.1,23.12c-3.99-17.98-15.69-22.21-26.62-20.43-12.37,2.02-14.02,10.12-13.24,14.86,1.04,6.39,7.18,10.26,16.69,12.73l15.92,4.18c11.94,3.13,31.98,10.45,36.35,37.26,3.37,20.62-2.16,50.31-46.09,57.48-24.54,4-56.47.32-67.88-29.36Z"/>
        </g>
      </g>
    </g>
  </g>
</svg>